<?xml version="1.0" encoding="UTF-8"?>
<!-- Generator: Adobe Illustrator 26.4.1, SVG Export Plug-In . SVG Version: 6.00 Build 0)  -->
<svg version="1.1" id="图层_1" xmlns="http://www.w3.org/2000/svg" xmlns:xlink="http://www.w3.org/1999/xlink" x="0px" y="0px" viewBox="0 0 323.5 252.3" style="enable-background:new 0 0 323.5 252.3;" xml:space="preserve">
<style type="text/css">
	.st0{fill:#FFFFFF;}
</style>
<g>
	<path class="st0" d="M32.4,84.2c-5.3,0-10.2-1.6-12.7-3.2L18,73.2c4.7,3.2,9.5,4.8,14.8,4.8c5.5,0,9.1-3,9.1-7.3   c0-4.1-2.6-6.8-8.6-8.7c-8.8-2.7-13.4-7.5-13.4-14c0-6.6,5.1-12.9,15.6-12.9c4.9,0,8.9,1.5,10.7,2.7l-1.5,5.9   C43,42.6,39.2,41,35.2,41c-5,0-8.1,3-8.1,6.4c0,3.1,2.8,5.6,8,7.3C43.6,57.6,49.4,62,49.4,70C49.4,78.4,43.5,84.2,32.4,84.2"/>
	<path class="st0" d="M73.3,84.1c-10.4,0-18.6-7.2-18.6-17.6c0-10.5,8.2-17.6,18.6-17.6c10.4,0,18.5,7.2,18.5,17.6   C91.9,77,83.7,84.1,73.3,84.1 M73.3,54.9c-6.2,0-11.5,4.7-11.5,11.7c0,7,5.3,11.6,11.5,11.6c6.1,0,11.4-4.7,11.4-11.6   C84.8,59.5,79.4,54.9,73.3,54.9"/>
	<path class="st0" d="M106.4,84.7c-2.3-0.6-7-2.8-7-9.3V30.6h7v44c0,3.1,2.5,5.2,4.7,5.6L106.4,84.7"/>
	<path class="st0" d="M122.5,43.3c-1.4,0-4.2-2.7-4.2-4.1c0-1.4,2.9-4.1,4.2-4.1c1.5,0,4.3,2.7,4.3,4.1   C126.8,40.6,124,43.3,122.5,43.3 M119,49.8h7.1v33.6H119V49.8z"/>
	<path class="st0" d="M162.6,57.4c-3.2-1.9-6-2.5-9.4-2.5c-6.4,0-12.4,4.4-12.4,11.7c0,7.2,6.1,11.6,12.5,11.6c3.2,0,6.1-0.6,10-2.4   l-1.5,6.6c-2.6,1.1-5.7,1.7-9.2,1.7c-9.6,0-19-6.6-19-17.6c0-11,9.4-17.6,19-17.6c4.6,0,8.3,1,11.2,2.5L162.6,57.4"/>
	<path class="st0" d="M174.9,43.3c-1.4,0-4.2-2.7-4.2-4.1c0-1.4,2.9-4.1,4.2-4.1c1.5,0,4.3,2.7,4.3,4.1   C179.2,40.6,176.3,43.3,174.9,43.3 M171.3,49.8h7.1v33.6h-7.1V49.8z"/>
	<path class="st0" d="M209,55.2h-11.1v18.7c0,2.7,2.3,4.2,5.2,4.2c1.5,0,2.8-0.1,3.9-0.5l-1.4,6c-0.8,0.2-1.8,0.3-3.2,0.3   c-6.3,0-11.4-3.6-11.4-10.2V55.2H184v-5.4h6.9v-6.8l7-3.5v10.3h12.4L209,55.2"/>
	<path class="st0" d="M231.6,84.1c-10.4,0-18.6-7.2-18.6-17.6c0-10.5,8.2-17.6,18.6-17.6c10.4,0,18.5,7.2,18.5,17.6   C250.1,77,242,84.1,231.6,84.1 M231.6,54.9c-6.2,0-11.5,4.7-11.5,11.7c0,7,5.3,11.6,11.5,11.6c6.1,0,11.4-4.7,11.4-11.6   C243,59.5,237.7,54.9,231.6,54.9"/>
	<path class="st0" d="M276.5,55c-5.6,0-12.4,2.9-12.4,12.4v15.9h-7V49.8h6.6L264,55c1.9-4.1,6.6-5.7,11.9-5.7l1.3,5.7H276.5"/>
	<path class="st0" d="M291,84.1c-4.1,0-7.7-1.1-9.8-2.4l-1.6-7.4c2.9,2.4,7.3,4.2,11.6,4.2c3.3,0,5.6-1.7,5.6-4c0-2.4-1.8-3.8-5-4.9   c-7-2.4-10.8-5.6-10.8-11c0-5.6,4.8-9.6,11.7-9.6c4,0,7.8,1.3,9.1,2.1l-1.3,5.6c-1.5-1-4.1-2.2-7.9-2.2c-2.9,0-4.9,1.6-4.9,3.8   c0,2.2,1.6,3.3,5.1,4.4c7,2.4,11,5.5,11,11.3C303.7,79.6,299.5,84.1,291,84.1"/>
	<path class="st0" d="M50.5,150.1l-15.5-20.8h-7v20.8h-7.4v-47.3h15.6c7,0,14.8,4.3,14.8,13.3c0,6.3-3.9,10.3-8.6,12.2l16.8,21.9   H50.5 M34.9,108.9H28v14.4h6.9c4.4,0,8.5-2.2,8.5-7.2C43.4,111.2,39.3,108.9,34.9,108.9"/>
	<path class="st0" d="M87.3,132l-3.8,3.6H63.4c0.2,4,4.1,9.6,11.9,9.6c4.3,0,7.6-1.1,10.7-3.3l-1.7,6.9c-2.4,1.2-5.4,2.1-9.9,2.1   c-9.5,0-17.9-6.8-17.9-16.8c0-10.9,8.9-16.9,16.6-16.9c9.2,0,14.5,6.2,14.5,12.2C87.5,130.4,87.5,131.3,87.3,132 M73.4,122.7   c-4.2,0-8.7,3.2-9.6,7.7h16.8c0.1-0.3,0.1-0.6,0.1-0.9C80.7,126.4,77.9,122.7,73.4,122.7"/>
	<path class="st0" d="M103.3,166.5c-9.2,0-15.2-4.9-15.2-11.6c0-4.8,3.3-8.4,6.9-9.6l-3.4-3.3c0-2.3,1.9-4.3,3.8-5.2   c-3.1-2.1-4.9-5.2-4.9-8.7c0-6.3,5.2-10.8,12.6-10.8c1.8,0,3,0.2,4.1,0.5c1.1,0.3,2.7,0.4,4.3,0.4c1.9,0,3.8-0.6,4.9-1.1l1.3,5.3   c-0.5,0.4-2.2,0.8-3.3,0.8c0.7,1.1,1.2,2.8,1.2,4.9c0,5.7-4.6,10.8-12.5,10.8c-2.7,0-4.3,0.4-4.3,1.8c0,0.3,0.2,0.9,1,1.1l9.2,3.1   c5.9,2,9.4,5.1,9.4,11C118.2,161.9,112.2,166.5,103.3,166.5 M106.8,150.3l-5.8-1.6c-4.1,0-6.9,2.7-6.9,6.2c0,3.2,3,6.4,9.1,6.4   c5.9,0,8.9-3,8.9-5.5C112,153.3,110.3,151.3,106.8,150.3 M103,122.5c-3.7,0-6.4,2.6-6.4,5.5c0,3.1,2.7,5.5,6.4,5.5   c3.4,0,6.3-2.5,6.3-5.5C109.3,125.2,106.7,122.5,103,122.5"/>
	<path class="st0" d="M143.9,150.1l-0.3-3.2c-2.6,2.7-5.1,4-10.3,4c-7.3,0-12.7-4.5-12.7-11.6V118h6.7v20.6c0,3.3,2.1,6.7,7.8,6.7   c5.4,0,8-3.4,8-6.7V118h6.7v32.1H143.9"/>
	<path class="st0" d="M161.5,151.4c-2.2-0.6-6.6-2.7-6.6-8.9V99.6h6.7v42c0,3,2.4,5,4.5,5.3L161.5,151.4"/>
	<path class="st0" d="M194.1,150.9c-2.3-0.5-4.1-2.1-4.9-4.1c-2.4,3-5.8,4.1-9.4,4.1c-6.6,0-10.8-4.7-10.8-9.9   c0-6.2,5.3-9.8,11-10.3l7.8-0.7V128c0-2.9-1.8-5.2-6.5-5.2c-3.3,0-6.8,1-9.2,2.6l-1.3-5.3c3-1.9,6.9-2.8,10.9-2.8   c7.5,0,12.8,4,12.8,11.6v13c0,2.9,1.6,4.6,3.8,5L194.1,150.9 M187.9,135.4l-6.6,0.6c-4,0.4-5.8,2.8-5.8,5.2c0,2.3,2,4.3,4.7,4.3   c3.5,0,7.8-3.2,7.8-7.2V135.4z"/>
	<path class="st0" d="M220.9,123.2h-10.6V141c0,2.6,2.2,4,4.9,4c1.4,0,2.7-0.1,3.7-0.5l-1.3,5.7c-0.7,0.2-1.7,0.3-3,0.3   c-6.1,0-10.9-3.4-10.9-9.8v-17.7h-6.6V118h6.6v-6.5l6.7-3.3v9.9h11.8L220.9,123.2"/>
	<path class="st0" d="M229.6,111.8c-1.3,0-4.1-2.6-4.1-3.9c0-1.3,2.7-4,4.1-4c1.4,0,4.1,2.6,4.1,4   C233.7,109.2,231,111.8,229.6,111.8 M226.2,118h6.8v32.1h-6.8V118z"/>
	<path class="st0" d="M255,150.9c-10,0-17.8-6.9-17.8-16.8c0-10,7.8-16.9,17.8-16.9c10,0,17.7,6.9,17.7,16.9   C272.7,144,265,150.9,255,150.9 M255,122.9c-5.9,0-11,4.5-11,11.2c0,6.7,5.1,11.1,11,11.1c5.8,0,10.9-4.5,10.9-11.1   C265.9,127.4,260.9,122.9,255,122.9"/>
	<path class="st0" d="M299.6,150.1v-20.6c0-3.3-2.1-6.7-7.8-6.7c-5.4,0-8.1,3.4-8.1,6.7v20.6h-6.7V118h5.9l0.3,3.2   c2.6-2.7,5.1-4,10.3-4c7.3,0,12.7,4.5,12.7,11.6v21.3H299.6"/>
	<path class="st0" d="M54.2,216.9l-5.3-12.2H29.8l-5.3,12.2h-7.3l21-48h2.7l21,48H54.2 M41.5,187.4c-0.7-1.6-1.5-3.8-2.1-5.8h-0.2   c-0.5,2-1.4,4.2-2.1,5.8l-4.9,11.6h14.1L41.5,187.4z"/>
	<path class="st0" d="M90.5,216.9l-0.3-3.3c-2.7,2.8-5.3,4.2-10.8,4.2c-7.6,0-13.3-4.7-13.3-12.2v-22.2h7v21.6c0,3.5,2.2,7,8.1,7   c5.6,0,8.4-3.6,8.4-7v-21.6h7v33.6H90.5"/>
	<path class="st0" d="M125.7,188.7h-11.1v18.7c0,2.7,2.3,4.2,5.2,4.2c1.5,0,2.8-0.2,3.9-0.5l-1.4,6c-0.8,0.2-1.8,0.3-3.2,0.3   c-6.3,0-11.4-3.6-11.4-10.2v-18.5h-6.9v-5.4h6.9v-6.8l6.9-3.5v10.3h12.4L125.7,188.7"/>
	<path class="st0" d="M153.4,216.9v-21.6c0-3.5-2.2-7-8.1-7c-5.6,0-8.4,3.6-8.4,7v21.6h-7v-52.8h7V186c2.5-2.4,5.2-3.6,10.3-3.6   c7.6,0,13.3,4.7,13.3,12.2v22.2H153.4"/>
	<path class="st0" d="M183.9,217.7c-10.4,0-18.6-7.2-18.6-17.6c0-10.5,8.2-17.6,18.6-17.6c10.4,0,18.5,7.2,18.5,17.6   C202.4,210.5,194.3,217.7,183.9,217.7 M183.9,188.4c-6.2,0-11.5,4.7-11.5,11.7c0,7,5.3,11.6,11.5,11.6c6.1,0,11.4-4.7,11.4-11.6   C195.3,193.1,190,188.4,183.9,188.4"/>
	<path class="st0" d="M228.7,188.6c-5.6,0-12.4,2.9-12.4,12.5v15.9h-7v-33.6h6.6l0.3,5.3c1.9-4.2,6.6-5.7,11.9-5.7l1.3,5.7H228.7"/>
	<path class="st0" d="M238.9,176.9c-1.4,0-4.2-2.7-4.2-4.1c0-1.4,2.9-4.1,4.2-4.1c1.5,0,4.3,2.7,4.3,4.1   C243.3,174.1,240.4,176.9,238.9,176.9 M235.4,183.3h7.1v33.6h-7.1V183.3z"/>
	<path class="st0" d="M273,188.7h-11.1v18.7c0,2.7,2.3,4.2,5.2,4.2c1.5,0,2.8-0.2,3.9-0.5l-1.4,6c-0.8,0.2-1.8,0.3-3.2,0.3   c-6.3,0-11.4-3.6-11.4-10.2v-18.5h-6.9v-5.4h6.9v-6.8l6.9-3.5v10.3h12.4L273,188.7"/>
	<path class="st0" d="M296.4,213.6c-5.2,12.4-11,17.8-17.8,20.8l-4.2-4.1c6.4-2.3,10.8-6.7,14.9-16.3l-13.1-30.6h7.3l6.5,15.3   c0.9,2.2,2,4.8,3,7.6h0.2c0.9-2.6,2-5.1,2.9-7.3l6.6-15.5h6.7L296.4,213.6"/>
</g>
</svg>